<svg width="530" height="142" viewBox="0 0 530 142" fill="none" xmlns="http://www.w3.org/2000/svg">
<path d="M75.4532 28C75.4532 28 28.2595 28 16.4145 30.9127C10.0723 32.5896 4.85 37.5317 3.07791 43.6217C7.01251e-05 54.8309 0 78.0442 0 78.0442C0 78.0442 7.01251e-05 101.346 3.07791 112.378C4.85 118.468 9.97905 123.322 16.4145 124.999C28.3528 128 75.4532 128 75.4532 128C75.4532 128 122.74 128 134.585 125.087C141.021 123.41 146.15 118.645 147.829 112.467C151 101.346 151 78.1325 151 78.1325C151 78.1325 151.093 54.8309 147.829 43.6217C146.15 37.5317 141.021 32.678 134.585 31.0893C122.74 28.0001 75.4532 28 75.4532 28V28ZM60.4369 56.597L99.7032 78.0442L60.4369 99.4029V56.597V56.597Z" fill="#FF0000"/>
<path d="M176.856 114L178.296 36.24H188.952L202.68 99.312L216.504 36.24H227.064L228.504 114H219.768L218.904 57.552L205.752 114H199.608L186.552 57.552L185.688 114H176.856ZM254.823 114.768C250.727 114.768 247.495 113.936 245.127 112.272C242.759 110.608 241.063 108.24 240.039 105.168C239.079 102.096 238.599 98.48 238.599 94.32V78.192C238.599 74.032 239.079 70.416 240.039 67.344C241.063 64.272 242.759 61.904 245.127 60.24C247.495 58.576 250.727 57.744 254.823 57.744C258.919 57.744 262.119 58.576 264.423 60.24C266.791 61.904 268.455 64.272 269.415 67.344C270.439 70.416 270.951 74.032 270.951 78.192V94.32C270.951 98.48 270.439 102.096 269.415 105.168C268.455 108.24 266.791 110.608 264.423 112.272C262.119 113.936 258.919 114.768 254.823 114.768ZM254.823 107.184C256.807 107.184 258.183 106.608 258.951 105.456C259.783 104.304 260.263 102.8 260.391 100.944C260.583 99.024 260.679 97.04 260.679 94.992V77.616C260.679 75.504 260.583 73.52 260.391 71.664C260.263 69.808 259.783 68.304 258.951 67.152C258.183 65.936 256.807 65.328 254.823 65.328C252.839 65.328 251.431 65.936 250.599 67.152C249.767 68.304 249.255 69.808 249.063 71.664C248.935 73.52 248.871 75.504 248.871 77.616V94.992C248.871 97.04 248.935 99.024 249.063 100.944C249.255 102.8 249.767 104.304 250.599 105.456C251.431 106.608 252.839 107.184 254.823 107.184ZM287.54 114L276.596 58.512H286.964L293.78 103.152L300.692 58.512H310.676L300.116 114H287.54ZM317.95 114V58.512H328.222V114H317.95ZM317.95 50.256V39.504H328.222V50.256H317.95ZM354.575 114.768C350.223 114.768 346.863 113.936 344.495 112.272C342.127 110.544 340.463 108.048 339.503 104.784C338.607 101.456 338.159 97.392 338.159 92.592V79.92C338.159 74.992 338.639 70.896 339.599 67.632C340.559 64.368 342.223 61.904 344.591 60.24C347.023 58.576 350.351 57.744 354.575 57.744C359.247 57.744 362.671 58.704 364.847 60.624C367.087 62.544 368.559 65.328 369.263 68.976C369.967 72.56 370.319 76.88 370.319 81.936V86.448H348.431V97.584C348.431 99.824 348.623 101.648 349.007 103.056C349.455 104.464 350.127 105.52 351.023 106.224C351.983 106.864 353.199 107.184 354.671 107.184C356.207 107.184 357.359 106.832 358.127 106.128C358.959 105.36 359.503 104.304 359.759 102.96C360.079 101.552 360.239 99.92 360.239 98.064V94.704H370.223V96.816C370.223 102.384 369.039 106.768 366.671 109.968C364.303 113.168 360.271 114.768 354.575 114.768ZM348.431 80.88H360.239V75.888C360.239 73.584 360.111 71.664 359.855 70.128C359.599 68.528 359.055 67.344 358.223 66.576C357.455 65.744 356.207 65.328 354.479 65.328C352.815 65.328 351.535 65.712 350.639 66.48C349.807 67.248 349.231 68.56 348.911 70.416C348.591 72.208 348.431 74.704 348.431 77.904V80.88ZM382.936 114V44.304H369.784V36.24H406.552V44.304H393.784V114H382.936ZM416.558 114.768C414.382 114.768 412.686 114.192 411.47 113.04C410.254 111.888 409.39 110.448 408.878 108.72C408.43 106.992 408.206 105.232 408.206 103.44V58.512H418.478V100.368C418.478 102.352 418.766 103.92 419.342 105.072C419.918 106.16 421.102 106.704 422.894 106.704C424.046 106.704 425.23 106.384 426.446 105.744C427.726 105.04 428.942 104.208 430.094 103.248V58.512H440.366V114H430.094V108.528C428.302 110.256 426.254 111.728 423.95 112.944C421.71 114.16 419.246 114.768 416.558 114.768ZM470.744 114.768C468.76 114.768 466.968 114.288 465.368 113.328C463.832 112.304 462.488 111.184 461.336 109.968V114H451.064V36.24H461.336V62.928C462.552 61.52 463.992 60.304 465.656 59.28C467.384 58.256 469.432 57.744 471.8 57.744C474.68 57.744 476.952 58.512 478.616 60.048C480.344 61.52 481.624 63.408 482.456 65.712C483.288 67.952 483.832 70.256 484.088 72.624C484.344 74.928 484.472 76.912 484.472 78.576V92.016C484.472 95.92 484.088 99.632 483.32 103.152C482.552 106.608 481.176 109.424 479.192 111.6C477.208 113.712 474.392 114.768 470.744 114.768ZM468.632 106.704C470.424 106.704 471.704 106.064 472.472 104.784C473.24 103.44 473.72 101.648 473.911 99.408C474.104 97.168 474.2 94.704 474.2 92.016V78.576C474.2 76.272 474.072 74.16 473.816 72.24C473.56 70.256 473.016 68.688 472.184 67.536C471.352 66.384 470.04 65.808 468.248 65.808C466.904 65.808 465.624 66.096 464.408 66.672C463.256 67.248 462.232 67.888 461.336 68.592V104.208C462.232 104.912 463.288 105.52 464.504 106.032C465.784 106.48 467.16 106.704 468.632 106.704ZM509.169 114.768C504.817 114.768 501.457 113.936 499.089 112.272C496.721 110.544 495.057 108.048 494.097 104.784C493.201 101.456 492.753 97.392 492.753 92.592V79.92C492.753 74.992 493.233 70.896 494.193 67.632C495.153 64.368 496.817 61.904 499.185 60.24C501.617 58.576 504.945 57.744 509.169 57.744C513.841 57.744 517.265 58.704 519.441 60.624C521.681 62.544 523.153 65.328 523.857 68.976C524.561 72.56 524.913 76.88 524.913 81.936V86.448H503.025V97.584C503.025 99.824 503.217 101.648 503.601 103.056C504.049 104.464 504.721 105.52 505.617 106.224C506.577 106.864 507.793 107.184 509.265 107.184C510.801 107.184 511.953 106.832 512.721 106.128C513.553 105.36 514.097 104.304 514.353 102.96C514.673 101.552 514.833 99.92 514.833 98.064V94.704H524.817V96.816C524.817 102.384 523.633 106.768 521.265 109.968C518.897 113.168 514.865 114.768 509.169 114.768ZM503.025 80.88H514.833V75.888C514.833 73.584 514.705 71.664 514.449 70.128C514.193 68.528 513.649 67.344 512.817 66.576C512.049 65.744 510.801 65.328 509.073 65.328C507.409 65.328 506.129 65.712 505.233 66.48C504.401 67.248 503.825 68.56 503.505 70.416C503.185 72.208 503.025 74.704 503.025 77.904V80.88Z" fill="black"/>
</svg>
